name C:\Users\u0101727\Documents\MyRepositories\upper-imu-dc\Results\main_tracking\Case_24\SHRUG01_orientations_groundFrame.mot
datacolumns 13
datarows 43
range 0.51000000 0.93000000
endheader 
time	radius_imu_[0][0]	radius_imu_[0][1]	radius_imu_[0][2]	radius_imu_[1][0]	radius_imu_[1][1]	radius_imu_[1][2]	radius_imu_[2][0]	radius_imu_[2][1]	radius_imu_[2][2]	radius_imu_x	radius_imu_y	radius_imu_z	
          0.51000000	          0.55162836	         -0.11694685	          0.82585083	         -0.19235184	          0.94559746	          0.26238561	         -0.81160762	         -0.30359327	          0.49912343	         -0.48398998	          0.97170940	          0.20890979	
          0.52000000	          0.54889869	         -0.11682683	          0.82768455	         -0.19372941	          0.94544400	          0.26192473	         -0.81312923	         -0.30411698	          0.49632018	         -0.48558737	          0.97496910	          0.20970935	
          0.53000000	          0.54623525	         -0.11671222	          0.82946085	         -0.19535641	          0.94518628	          0.26164628	         -0.81453233	         -0.30496091	          0.49349358	         -0.48750835	          0.97814175	          0.21050131	
          0.54000000	          0.54387708	         -0.11659847	          0.83102498	         -0.19694811	          0.94490408	          0.26147221	         -0.81572616	         -0.30587754	          0.49094783	         -0.48937574	          0.98094787	          0.21118718	
          0.55000000	          0.54222271	         -0.11647354	          0.83212285	         -0.19823141	          0.94465694	          0.26139544	         -0.81651628	         -0.30668743	          0.48912573	         -0.49079798	          0.98292454	          0.21159223	
          0.56000000	          0.54165867	         -0.11632802	          0.83251047	         -0.19898933	          0.94448433	          0.26144330	         -0.81670627	         -0.30727373	          0.48844009	         -0.49145750	          0.98362383	          0.21154923	
          0.57000000	          0.54241236	         -0.11616135	          0.83204289	         -0.19909871	          0.94440633	          0.26164170	         -0.81617923	         -0.30757636	          0.48913009	         -0.49118582	          0.98278038	          0.21097018	
          0.58000000	          0.54448666	         -0.11598293	          0.83071189	         -0.19854215	          0.94442606	          0.26199319	         -0.81493269	         -0.30758312	          0.49119989	         -0.48998888	          0.98038522	          0.20987651	
          0.59000000	          0.54768429	         -0.11580866	          0.82863157	         -0.19739188	          0.94453387	          0.26247326	         -0.81306726	         -0.30731762	          0.49444667	         -0.48801601	          0.97665872	          0.20838197	
          0.60000000	          0.55167710	         -0.11565611	          0.82600002	         -0.19578074	          0.94471205	          0.26303809	         -0.81075414	         -0.30682699	          0.49853277	         -0.48550218	          0.97197403	          0.20665175	
          0.61000000	          0.55608077	         -0.11554110	          0.82305798	         -0.19387330	          0.94493848	          0.26363689	         -0.80820005	         -0.30617238	          0.50306178	         -0.48271347	          0.96677437	          0.20486267	
          0.62000000	          0.56051291	         -0.11547655	          0.82005515	         -0.19184358	          0.94518882	          0.26422363	         -0.80561859	         -0.30542307	          0.50763710	         -0.47991050	          0.96150738	          0.20317672	
          0.63000000	          0.56463095	         -0.11547305	          0.81722571	         -0.18986008	          0.94543758	          0.26476582	         -0.80320921	         -0.30465352	          0.51189959	         -0.47733023	          0.95658064	          0.20172895	
          0.64000000	          0.56815038	         -0.11554010	          0.81477336	         -0.18807794	          0.94565826	          0.26524922	         -0.80114408	         -0.30394234	          0.51554556	         -0.47518179	          0.95233818	          0.20062598	
          0.65000000	          0.57084734	         -0.11568692	          0.81286521	         -0.18663697	          0.94582330	          0.26567825	         -0.79956236	         -0.30337242	          0.51832925	         -0.47365025	          0.94905459	          0.19995026	
          0.66000000	          0.57255283	         -0.11592198	          0.81163129	         -0.18566309	          0.94590406	          0.26607279	         -0.79856901	         -0.30303070	          0.52005762	         -0.47290172	          0.94693921	          0.19976474	
          0.67000000	          0.57314510	         -0.11625070	          0.81116611	         -0.18527056	          0.94587140	          0.26646223	         -0.79823525	         -0.30300672	          0.52058373	         -0.47308481	          0.94614335	          0.20011470	
          0.68000000	          0.57254382	         -0.11667200	          0.81153017	         -0.18556340	          0.94569677	          0.26687795	         -0.79859865	         -0.30338961	          0.51980279	         -0.47432710	          0.94676614	          0.20102587	
          0.69000000	          0.57071238	         -0.11717501	          0.81274682	         -0.18663319	          0.94535361	          0.26734733	         -0.79965957	         -0.30426396	          0.51765627	         -0.47672656	          0.94885135	          0.20249953	
          0.70000000	          0.56768740	         -0.11773821	          0.81478140	         -0.18854602	          0.94481865	          0.26789573	         -0.80136222	         -0.30570482	          0.51416257	         -0.48033217	          0.95235205	          0.20450045	
          0.71000000	          0.56366496	         -0.11833275	          0.81748344	         -0.19130713	          0.94407316	          0.26856556	         -0.80354427	         -0.30777140	          0.50950306	         -0.48510181	          0.95702798	          0.20692951	
          0.72000000	          0.55915562	         -0.11893106	          0.82048790	         -0.19479921	          0.94310412	          0.26945851	         -0.80585250	         -0.31049964	          0.50417430	         -0.49083025	          0.96226397	          0.20957445	
          0.73000000	          0.55517711	         -0.11951724	          0.82310024	         -0.19870668	          0.94190540	          0.27079488	         -0.80764722	         -0.31389463	          0.49917545	         -0.49705475	          0.96684878	          0.21204155	
          0.74000000	          0.55340421	         -0.12008488	          0.82421078	         -0.20245920	          0.94047936	          0.27296310	         -0.80793196	         -0.31792798	          0.49615295	         -0.50296541	          0.96880709	          0.21368039	
          0.75000000	          0.55615569	         -0.12058589	          0.82228334	         -0.20524940	          0.93883990	          0.27650015	         -0.80533442	         -0.32255029	          0.49739097	         -0.50736245	          0.96541182	          0.21351546	
          0.76000000	          0.56605900	         -0.12076071	          0.81547168	         -0.20620978	          0.93702153	          0.28190101	         -0.79815709	         -0.32773084	          0.50550743	         -0.50870478	          0.95354366	          0.21018505	
          0.77000000	          0.58528692	         -0.11976378	          0.80193258	         -0.20484689	          0.93510681	          0.28915913	         -0.78452341	         -0.33351445	          0.52277255	         -0.50524011	          0.93052314	          0.20183778	
          0.78000000	          0.61254513	         -0.11579490	          0.78190793	         -0.20228765	          0.93330400	          0.29668730	         -0.76411267	         -0.33990467	          0.54826694	         -0.49601283	          0.89772052	          0.18683424	
          0.79000000	          0.62134949	         -0.11528549	          0.77500585	         -0.20218302	          0.93202852	          0.30074053	         -0.75699857	         -0.34355800	          0.55580668	         -0.49597554	          0.88672436	          0.18345431	
          0.80000000	          0.60734463	         -0.11988428	          0.78534085	         -0.20490504	          0.93146191	          0.30065368	         -0.76755874	         -0.34352070	          0.54115350	         -0.50711664	          0.90324653	          0.19488551	
          0.81000000	          0.60309626	         -0.11939427	          0.78868239	         -0.20727158	          0.93131485	          0.29948479	         -0.77026839	         -0.34408960	          0.53692546	         -0.50879458	          0.90866289	          0.19544177	
          0.82000000	          0.60271212	         -0.11898004	          0.78903856	         -0.20784585	          0.93128057	          0.29919325	         -0.77041431	         -0.34432579	          0.53656458	         -0.50866630	          0.90924243	          0.19490177	
          0.83000000	          0.60680618	         -0.11952585	          0.78581157	         -0.20611894	          0.93114748	          0.30079786	         -0.76765959	         -0.34449665	          0.54038950	         -0.50792037	          0.90400727	          0.19448554	
          0.84000000	          0.61695849	         -0.11835245	          0.77804558	         -0.20358840	          0.93097316	          0.30305237	         -0.76020654	         -0.34537179	          0.55027661	         -0.50340145	          0.89154868	          0.18952963	
          0.85000000	          0.62412069	         -0.11775120	          0.77240405	         -0.20122629	          0.93100608	          0.30452529	         -0.75497109	         -0.34548854	          0.55736553	         -0.50004852	          0.88261761	          0.18647541	
          0.86000000	          0.65628921	         -0.10568770	          0.74707067	         -0.19788492	          0.93137036	          0.30559910	         -0.72809754	         -0.34839541	          0.59033431	         -0.47768446	          0.84364440	          0.15966748	
          0.87000000	          0.66762573	         -0.10023709	          0.73771838	         -0.19591240	          0.93231790	          0.30397642	         -0.71825777	         -0.34747065	          0.60280173	         -0.46705988	          0.82968446	          0.14902652	
          0.88000000	          0.60779878	         -0.12056593	          0.78488502	         -0.19839162	          0.93400780	          0.29710301	         -0.76890923	         -0.33629346	          0.54376953	         -0.50005716	          0.90251055	          0.19582283	
          0.89000000	          0.58034138	         -0.12150538	          0.80525793	         -0.20301084	          0.93600552	          0.28754177	         -0.78866373	         -0.33034847	          0.51853582	         -0.50631168	          0.93611035	          0.20638757	
          0.90000000	          0.56159808	         -0.11945414	          0.81874191	         -0.20682183	          0.93784497	          0.27869614	         -0.80114439	         -0.32584892	          0.50198621	         -0.50681671	          0.95921640	          0.20958055	
          0.91000000	          0.55099570	         -0.11661524	          0.82631993	         -0.20925360	          0.93924616	          0.27208378	         -0.80784693	         -0.32282741	          0.49311843	         -0.50419462	          0.97254181	          0.20856676	
          0.92000000	          0.54716924	         -0.11416944	          0.82919911	         -0.21053272	          0.94003264	          0.26835537	         -0.81011221	         -0.32140935	          0.49032055	         -0.50077252	          0.97767331	          0.20570338	
          0.93000000	          0.54917834	         -0.11279946	          0.82805763	         -0.21088054	          0.94007946	          0.26791793	         -0.80866096	         -0.32175596	          0.49248406	         -0.49823535	          0.97563423	          0.20257934	
